<?xml version="1.0" standalone="no"?>
<!DOCTYPE svg PUBLIC "-//W3C//DTD SVG 20010904//EN"
 "http://www.w3.org/TR/2001/REC-SVG-20010904/DTD/svg10.dtd">
<svg version="1.0" xmlns="http://www.w3.org/2000/svg"
 width="2800.000000pt" height="2800.000000pt" viewBox="0 0 2800.000000 2800.000000"
 preserveAspectRatio="xMidYMid meet">
<metadata>
Created by potrace 1.14, written by Peter Selinger 2001-2017
</metadata>
<g transform="translate(0.000000,2800.000000) scale(0.100000,-0.100000)"
fill="#000000" stroke="none">
<path d="M4498 25501 l-2498 -2499 0 -9001 0 -9001 3000 0 3000 0 0 -2501 0
-2501 2501 2501 2501 2501 2000 0 2000 0 4499 4499 4499 4499 0 7001 0 7001
-9502 0 -9503 -1 -2497 -2498z m19472 499 l35 0 -2 -5487 c-1 -3019 -2 -5494
-3 -5501 0 -7 -900 -913 -2000 -2013 l-2001 -2000 -2000 0 -2000 0 -1745
-1746 c-960 -959 -1748 -1743 -1750 -1740 -2 2 -4 787 -4 1745 l0 1741 -2250
-2 -2250 -2 0 55 c-1 72 -1 14875 0 14920 l0 35 7967 -2 c4383 -1 7984 -2
8003 -3z"/>
<path d="M13859 22483 c62 -158 296 -735 312 -770 10 -23 19 -46 19 -51 0 -5
6 -22 14 -38 7 -16 30 -72 51 -124 20 -52 43 -108 50 -125 7 -16 65 -160 129
-320 64 -159 121 -301 128 -315 6 -14 14 -34 18 -45 13 -36 32 -80 46 -108 8
-16 14 -33 14 -38 0 -6 8 -29 19 -52 10 -23 74 -179 141 -347 67 -168 151
-377 187 -465 36 -88 87 -216 115 -285 27 -69 56 -138 63 -155 7 -16 50 -122
95 -235 218 -544 292 -727 300 -745 5 -11 23 -56 40 -100 17 -44 37 -93 44
-110 8 -16 60 -145 116 -285 117 -294 307 -766 320 -795 5 -11 19 -45 30 -75
12 -30 28 -71 36 -90 8 -20 52 -128 97 -240 l83 -205 984 0 984 0 196 485
c107 267 198 490 201 495 4 6 12 28 19 50 7 22 21 58 31 80 10 22 37 87 59
145 23 58 47 119 55 135 7 17 27 66 44 110 86 215 255 633 266 660 8 17 59
145 115 285 56 140 105 264 110 275 9 20 32 76 160 395 34 85 68 169 75 185 7
17 27 66 44 110 18 44 36 89 41 100 5 11 36 90 70 175 33 85 65 164 70 175 9
19 63 153 204 505 37 91 71 174 76 185 5 11 49 121 99 245 167 418 342 855
351 875 4 11 15 36 23 55 8 19 50 121 92 225 42 105 79 196 82 203 4 10 -222
12 -1127 10 l-1133 -3 -49 -140 c-26 -77 -61 -178 -77 -225 -16 -47 -62 -177
-101 -290 -39 -113 -73 -209 -74 -215 -2 -5 -6 -17 -9 -25 -3 -8 -20 -55 -37
-105 -129 -375 -294 -851 -343 -990 -13 -38 -34 -99 -46 -135 -35 -103 -113
-327 -191 -550 -39 -113 -82 -236 -95 -275 -31 -91 -154 -446 -161 -465 -6
-16 -13 0 -92 230 -28 80 -83 237 -122 350 -40 113 -73 210 -74 215 -2 6 -6
17 -9 25 -3 8 -31 89 -62 180 -31 91 -72 208 -90 260 -18 52 -51 147 -73 210
-22 63 -61 176 -87 250 -26 74 -55 160 -65 190 -10 30 -50 147 -90 260 -40
113 -83 239 -97 280 -13 41 -28 84 -33 95 -9 21 -31 85 -188 540 -55 160 -103
300 -107 313 l-6 22 -1150 0 -1149 0 19 -47z"/>
</g>
</svg>
